<svg width="1366" height="768" viewBox="0 0 1366 768" fill="none" xmlns="http://www.w3.org/2000/svg">
<g opacity="0.27">
<path d="M525.143 1251.52L-38.6726 1251.52L-38.6725 752.77C700.707 775.443 1279.04 314.578 1320.3 238.312C1331.51 601.727 1211.09 931.456 525.143 1251.52Z" fill="#8A7466"/>
<path d="M131.151 1122.64C1275.26 997.657 1346.82 108.382 1389.57 -337.327C1388.46 -47.8979 1389.57 705.51 1389.57 1122.64H131.151Z" fill="#DECDBA"/>
</g>
<path d="M116.826 875.321C1418.45 900.554 1288.31 504.757 1430.96 -180.706C1426.8 33.9616 1711.76 1180.55 1170.53 1256.7C731.034 1150.98 385.097 939.854 116.826 875.321Z" stroke="#A10C19" stroke-width="2"/>
<path opacity="0.5" d="M-219.966 264.3C-219.966 264.3 53.0144 170.041 414.269 -30.1848L83.586 -232.313L-219.966 264.3Z" fill="#DECDBA"/>
</svg>
