<svg width="85" height="40" viewBox="0 0 85 40" fill="none" xmlns="http://www.w3.org/2000/svg">
<path d="M26.7367 1.2784C23.0334 -0.0685821 19.0137 -0.287318 15.186 0.649849C11.3582 1.58702 7.89444 3.63799 5.23255 6.54342C2.57067 9.44885 0.830263 13.0782 0.231415 16.9726C-0.367434 20.867 0.202174 24.8515 1.86821 28.4223C3.53424 31.993 6.22187 34.9896 9.59124 37.0331C12.9606 39.0766 16.8604 40.0752 20.7974 39.9028C24.7344 39.7303 28.5319 38.3944 31.7096 36.0641C34.8872 33.7337 37.3024 30.5136 38.6497 26.8108C40.4499 21.8452 40.2067 16.3684 37.9733 11.5818C35.74 6.79525 31.699 3.08982 26.7367 1.2784V1.2784ZM37.2322 25.7897C32.7501 27.8786 26.2767 28.3568 19.9292 27.1284C20.8856 25.0628 21.7463 22.9124 22.5063 20.7216C25.6515 20.6206 28.7599 20.015 31.7129 18.928C33.2118 21.6864 35.0933 23.9979 37.346 25.4453C37.3102 25.5609 37.2697 25.6747 37.2322 25.7903V25.7897ZM12.6457 36.0307C11.336 32.5012 10.2443 28.8946 9.37682 25.2313C11.0519 26.1488 12.8045 26.9172 14.6143 27.5274C15.5291 27.8388 16.4594 28.1143 17.3987 28.3522C16.0439 31.0468 14.4534 33.6164 12.6457 36.0307V36.0307ZM30.9199 17.357C28.4044 18.2615 25.7705 18.7944 23.1013 18.9388C23.9805 16.1794 24.685 13.3673 25.2105 10.5193C26.349 10.7891 27.5104 11.0196 28.7002 11.2023C29.2583 13.3148 30.0004 15.3742 30.9182 17.357H30.9199ZM29.927 11.3737C32.0046 11.6279 34.0962 11.7498 36.1892 11.7385C36.5421 12.4313 36.8509 13.1458 37.1137 13.8776C35.5556 15.1371 33.826 16.1684 31.977 16.9404C31.1438 15.1433 30.4576 13.2816 29.9253 11.3737H29.927ZM23.7098 8.98304C22.7538 8.71096 21.8211 8.40739 20.9118 8.07232C21.769 6.12079 22.4102 4.08138 22.824 1.99046C23.3367 2.07318 23.8491 2.17886 24.3611 2.3075C24.2853 4.54371 24.0672 6.77283 23.7081 8.98133L23.7098 8.98304ZM23.5185 10.0833C22.9695 13.1035 22.213 16.0823 21.2545 18.9986C19.0429 18.9953 16.8377 18.7616 14.6746 18.3013C16.97 15.4779 18.9113 12.3843 20.4552 9.08947C21.4452 9.45831 22.4693 9.78788 23.5163 10.0822L23.5185 10.0833ZM13.9391 17.4214C12.2594 13.2059 11.1651 8.78024 10.6868 4.26781C10.8963 4.14601 11.112 4.03729 11.3249 3.92288C13.767 5.89678 16.4881 7.49787 19.3997 8.67396C17.9263 11.7924 16.0937 14.728 13.9391 17.4214V17.4214ZM16.5954 26.3196C16.1195 26.1796 15.6474 26.0299 15.179 25.8705C13.2504 25.2219 11.3921 24.3803 9.63243 23.3587C10.8934 22.3484 12.0735 21.2411 13.162 20.0471C14.1447 22.2225 15.2925 24.3195 16.5954 26.3196V26.3196ZM8.80297 22.6096C8.49499 21.0602 8.23995 19.512 8.02703 17.9593C9.36803 18.5662 10.7519 19.0736 12.1675 19.4773C11.1312 20.6088 10.0068 21.6561 8.80468 22.6096H8.80297ZM15.1551 20.1825C16.9711 20.5174 18.8116 20.7017 20.6579 20.7335C20.0117 22.5413 19.2961 24.3195 18.5128 26.0373C17.2485 24.1725 16.1261 22.2154 15.1551 20.1825V20.1825ZM32.7712 18.5034C34.5074 17.7658 36.1471 16.8193 37.654 15.6848C38.352 18.5234 38.3536 21.4886 37.6586 24.328C35.6049 22.7863 33.9328 20.7935 32.7712 18.5034V18.5034ZM35.5784 10.6303C33.5842 10.6145 31.593 10.4745 29.6162 10.2114C29.096 8.14163 28.7363 6.03486 28.5402 3.90979C31.4532 5.46928 33.8863 7.79259 35.5784 10.6303V10.6303ZM27.3692 3.33945C27.5312 5.5936 27.876 7.83088 28.4002 10.0292C27.38 9.86244 26.3815 9.65867 25.4017 9.42587C25.7638 7.24084 25.9935 5.03593 26.0895 2.82319C26.1151 2.8323 26.1401 2.83799 26.1657 2.84653C26.5762 2.9968 26.9758 3.16357 27.3692 3.33945V3.33945ZM19.9428 1.7457C20.5315 1.7457 21.123 1.7827 21.715 1.84076C21.3072 3.84179 20.6844 5.79293 19.8574 7.66022C17.1946 6.58598 14.6946 5.14549 12.4299 3.38044C14.79 2.3099 17.3507 1.75307 19.9423 1.74684L19.9428 1.7457ZM9.05802 5.35498C9.57526 9.5636 10.6121 13.6919 12.1447 17.6456C10.6422 17.1911 9.18103 16.6096 7.77711 15.9073C7.45512 12.8842 7.30307 9.84542 7.32168 6.80529C7.86955 6.28642 8.44927 5.80224 9.05745 5.35555L9.05802 5.35498ZM6.83096 17.3821C7.02679 18.9246 7.26931 20.4635 7.55851 21.9988C5.31105 20.4061 3.45748 18.3208 2.13944 15.9022C2.24248 15.4565 2.35861 15.0108 2.49752 14.568C3.84061 15.6536 5.29266 16.5971 6.83038 17.3832L6.83096 17.3821ZM6.19847 7.98011C6.22637 10.4464 6.35161 12.8689 6.59128 15.2658C5.36921 14.5649 4.2167 13.7491 3.14936 12.8297C3.90137 11.0616 4.93046 9.42477 6.1979 7.98068L6.19847 7.98011ZM1.72784 18.5916C3.19008 20.6393 5.00636 22.4094 7.09112 23.8186C5.72732 24.7309 4.17841 25.33 2.55559 25.5728C1.82851 23.3219 1.54716 20.9508 1.72727 18.5922L1.72784 18.5916ZM2.93246 26.6355C4.77865 26.3056 6.53077 25.5774 8.06688 24.5016C8.96317 28.475 10.1223 32.3845 11.5367 36.2043C7.60041 34.1667 4.54153 30.765 2.93246 26.6355V26.6355ZM13.9317 37.2322C15.7873 34.7765 17.4217 32.1613 18.8156 29.4172C21.0471 32.2597 23.6257 34.8118 26.4914 37.0137C22.4641 38.5771 18.0115 38.6546 13.9323 37.2322H13.9317ZM28.2886 36.2077C25.488 34.1459 22.9579 31.74 20.7581 29.0466C26.3485 29.9431 31.9554 29.5737 36.3179 28.0278C34.5927 31.5481 31.7768 34.4175 28.2892 36.2088L28.2886 36.2077Z" fill="white"/>
<path d="M78.4249 15.7572C78.4249 14.6113 78.4675 13.9031 78.8055 13.2157C79.7966 13.3402 81.699 13.5769 82.8363 13.2577C84.8889 12.6793 85.0234 10.2799 84.9974 8.90673C83.8374 8.81802 82.4146 8.84077 80.9793 9.0497C77.0958 9.59097 74.2253 12.3817 74.2253 16.9235V31.0024H78.4249V20.2967H81.2955C83.2762 20.2967 83.5539 18.9462 83.5539 16.9439H78.4249V15.7572ZM67.2386 23.9418C67.2386 22.6923 67.2386 21.4434 67.5348 20.6713C68.4411 20.7764 69.7971 20.8753 70.6162 20.6302C72.694 20.0095 72.6638 17.7099 72.6638 16.3778C71.4819 16.3017 70.369 16.3554 69.0963 16.5477C65.5467 17.0852 63.0389 19.7563 63.0389 24.2969V31.0024H67.2386V23.9418ZM56.3056 27.3996C52.8875 28.2747 50.4809 26.4833 50.4809 23.1925V20.2967C51.2195 19.8593 52.0007 19.5681 53.1616 19.5681C57.2142 19.5681 58.0153 23.8172 56.3056 27.3996V27.3996ZM54.3434 16.1319C52.8227 16.1319 51.4094 16.6939 50.4809 17.2775V8.94669C48.8129 8.92511 47.0199 9.71673 46.2594 10.3838V23.1297C46.2594 28.3374 49.5734 31.0447 53.752 31.0447C57.91 31.0447 61.3293 27.6908 61.3293 23.1717C61.3293 19.4846 58.711 16.1319 54.3434 16.1319Z" fill="white"/>
</svg>
